<svg id="Layer_1" class="logo-tgc" data-name="Layer 1" xmlns="http://www.w3.org/2000/svg" viewBox="0 0 113 28">
  <defs>
    <style>
      .cls-1 {
        fill: #010101;
      }

      .cls-2 {
        fill: #d2cab9;
      }
    </style>
  </defs>
  <path class="cls-1" d="m31.66.82v5.55h-11.95v20.85h-7.72V6.38H0V.82h31.66Z"></path>
  <path class="cls-1" d="m105.92,2.09c3.17,1.39,5.53,3.22,7.08,5.49l-7.17,2.23c-.98-1.28-2.4-2.29-4.24-3.05-1.85-.76-3.84-1.14-5.96-1.14-3.21,0-5.93.82-8.15,2.46-2.23,1.64-3.38,3.62-3.46,5.94-.06,2.28,1.05,4.25,3.34,5.9,2.29,1.65,5.05,2.47,8.28,2.47,2.1,0,4.01-.38,5.73-1.13,1.72-.75,3.11-1.77,4.2-3.04l7.36,1.94c-1.68,2.41-4.04,4.32-7.08,5.72-3.05,1.41-6.45,2.11-10.21,2.11-3.51,0-6.77-.62-9.76-1.86-2.99-1.24-5.36-2.94-7.1-5.1-1.74-2.16-2.56-4.5-2.48-7.01.06-1.91.61-3.73,1.64-5.45,1.03-1.72,2.4-3.2,4.11-4.45,1.71-1.25,3.74-2.24,6.11-2.99,2.37-.74,4.86-1.12,7.48-1.12,3.7,0,7.13.7,10.3,2.09Z"></path>
  <path class="cls-1" d="m65.13,2.1C61.96.72,58.51.03,54.8.03c-2.62,0-5.11.37-7.48,1.12s-4.4,1.74-6.11,2.98c-1.72,1.25-3.08,2.74-4.11,4.45-1.04,1.72-1.58,3.54-1.64,5.45-.08,2.53.75,4.87,2.49,7.03,1.73,2.15,4.1,3.84,7.09,5.09,2.99,1.23,6.25,1.86,9.76,1.86,1.81,0,3.49-.17,5.07-.53v-5.91c-1.55.58-3.24.87-5.07.87-3.21,0-5.96-.83-8.26-2.48-2.29-1.65-3.41-3.62-3.35-5.92.07-2.32,1.23-4.3,3.47-5.94,2.24-1.64,4.95-2.46,8.14-2.46,2.14,0,4.14.38,5.99,1.15,1.84.77,3.26,1.79,4.24,3.05l7.18-2.26c-1.56-2.27-3.91-4.09-7.08-5.48Z"></path>
  <path class="cls-2" d="m63.44,27.25v-7.52h-8.64v-6.43h16.01v13.95h-7.37Z"></path>
</svg>